<?xml version="1.0" encoding="UTF-8"?>
<svg version="1.1" xmlns="http://www.w3.org/2000/svg" width="512" height="512">
<path d="M0 0 C3.34431661 0.0160479 6.68834919 0.00603877 10.03267288 -0.00411892 C13.30684404 -0.01114635 16.58085297 -0.00320884 19.85500336 0.00913811 C21.39361698 0.01357778 22.93224847 0.01405696 24.47086334 0.01007271 C55.05971365 -0.03212235 82.10276888 10.26255602 104.0057373 31.82452393 C122.2557373 50.25742739 122.2557373 50.25742739 122.2557373 58.44952393 C123.52774701 57.34671266 124.79829583 56.24221624 126.0682373 55.13702393 C126.77593262 54.52214111 127.48362793 53.9072583 128.21276855 53.27374268 C130.25304499 51.53817777 130.25304499 51.53817777 131.76745605 49.65655518 C133.2557373 48.44952393 133.2557373 48.44952393 135.07885194 48.62760216 C137.9236843 49.70171919 139.42351096 51.24240816 141.57418442 53.39324093 C142.43558053 54.2474305 143.29697664 55.10162006 144.18447566 55.98169416 C145.13575423 56.94015018 146.08689155 57.89874642 147.03790283 58.85746765 C148.05129461 59.86812007 149.06534151 60.87811595 150.07998776 61.88750893 C152.8711289 64.66803654 155.65279689 67.45787748 158.43303227 70.24930394 C161.43101331 73.2561082 164.43760491 76.25428057 167.44313049 79.25354004 C173.33106829 85.13197736 179.21091375 91.01844579 185.08802882 96.90770131 C191.92652717 103.75980099 198.77262759 110.60428392 205.61898771 117.44852687 C217.82986758 129.65621512 230.03329703 141.87132465 242.23278809 154.09039307 C254.08249926 165.9591154 265.93816145 177.82185256 277.8001709 189.67828369 C290.70583806 202.57789972 303.60839329 215.48061265 316.50534463 228.38894325 C317.87919564 229.76400161 319.25304734 231.13905929 320.62689972 232.51411629 C321.30292678 233.19074689 321.97895385 233.86737749 322.67546658 234.56451206 C327.45029847 239.34323075 332.22727308 244.11980115 337.00499725 248.89562798 C342.82246172 254.71097531 348.63626127 260.52995756 354.44538894 266.35363322 C357.41195642 269.32746826 360.38011909 272.29966433 363.35259438 275.26759529 C366.06946955 277.98041768 368.78173603 280.69775805 371.49027541 283.4189024 C372.47494193 284.40651601 373.46132607 285.39242044 374.44952032 286.37650423 C375.78447861 287.70640965 377.11277866 289.04298892 378.44065475 290.37996578 C379.18273831 291.12291612 379.92482187 291.86586645 380.68939281 292.63133043 C382.2557373 294.44952393 382.2557373 294.44952393 382.2557373 296.44952393 C362.1257373 296.44952393 341.9957373 296.44952393 321.2557373 296.44952393 C321.2557373 357.82952393 321.2557373 419.20952393 321.2557373 482.44952393 C269.7757373 482.44952393 218.2957373 482.44952393 165.2557373 482.44952393 C165.2557373 441.52952393 165.2557373 400.60952393 165.2557373 358.44952393 C145.1257373 358.44952393 124.9957373 358.44952393 104.2557373 358.44952393 C104.2557373 399.36952393 104.2557373 440.28952393 104.2557373 482.44952393 C52.7757373 482.44952393 1.2957373 482.44952393 -51.7442627 482.44952393 C-51.7442627 421.06952393 -51.7442627 359.68952393 -51.7442627 296.44952393 C-72.2042627 296.44952393 -92.6642627 296.44952393 -113.7442627 296.44952393 C-106.9942627 288.57452393 -106.9942627 288.57452393 -103.85021973 285.44195557 C-103.14994659 284.74175797 -102.44967346 284.04156036 -101.72817993 283.32014465 C-100.62625809 282.22596474 -100.62625809 282.22596474 -99.5020752 281.10968018 C-98.34951736 279.95924477 -98.34951736 279.95924477 -97.17367554 278.78556824 C-94.7412276 276.35867652 -92.30530947 273.93530266 -89.8692627 271.51202393 C-88.21017718 269.85795907 -86.55132067 268.20366448 -84.8927002 266.5491333 C-80.84586561 262.51326959 -76.79618316 258.48028115 -72.7442627 254.44952393 C-73.35860168 254.04073502 -73.97294067 253.63194611 -74.605896 253.21076965 C-75.41371521 252.67282272 -76.22153442 252.13487579 -77.05383301 251.58062744 C-77.853797 251.04808853 -78.65376099 250.51554962 -79.47796631 249.96687317 C-103.05973917 234.17821224 -120.96112961 212.45513279 -127.7442627 184.44952393 C-127.91016907 183.83475189 -128.07607544 183.21997986 -128.24700928 182.58657837 C-130.32726034 173.88641325 -130.0725901 165.05471282 -130.0802002 156.16827393 C-130.08664366 154.38722634 -130.09337312 152.60617977 -130.10037231 150.82513428 C-130.11230168 147.09997104 -130.11605792 143.3749002 -130.11486816 139.64971924 C-130.11466589 134.9276238 -130.14189261 130.20613637 -130.17641258 125.48418427 C-130.19890114 121.80504764 -130.20269898 118.12605188 -130.20164871 114.44685364 C-130.20397474 112.70890725 -130.21262403 110.97095512 -130.22831345 109.233078 C-130.47554477 79.00541438 -119.94896788 52.13317202 -98.7442627 30.44952393 C-71.29156338 3.26545898 -36.72474001 -0.25033478 0 0 Z M-84.7442627 37.44952393 C-85.63629395 38.24874268 -86.5283252 39.04796143 -87.4473877 39.87139893 C-97.20143998 49.08053209 -104.43755214 59.60602725 -109.6817627 71.94952393 C-109.95214355 72.57616943 -110.22252441 73.20281494 -110.50109863 73.84844971 C-115.49774687 86.46039516 -116.20274113 99.42380748 -116.1427002 112.79327393 C-116.14472941 114.41742075 -116.14764782 116.04156668 -116.15139771 117.66571045 C-116.1557813 121.04409594 -116.1495198 124.42224097 -116.13537598 127.80059814 C-116.11828642 132.08671982 -116.12814919 136.37227751 -116.14609337 140.6583786 C-116.15703966 144.00455824 -116.15343578 147.35060864 -116.14570999 150.6967926 C-116.14373778 152.27531505 -116.14605973 153.85385003 -116.15314865 155.43235779 C-116.24677392 182.12431608 -107.73005821 205.28252182 -89.26672363 224.93585205 C-84.85188084 229.32520826 -79.85635356 232.92372257 -74.7442627 236.44952393 C-73.51449707 237.30997314 -73.51449707 237.30997314 -72.2598877 238.18780518 C-55.64498213 248.97634285 -36.43659148 251.93893017 -17.0567627 251.84796143 C-15.49987655 251.84999111 -13.94299135 251.8529099 -12.3861084 251.85665894 C-9.14895429 251.86104036 -5.91205128 251.85478833 -2.67492676 251.84063721 C1.42960107 251.82354772 5.53353993 251.83341171 9.63804626 251.8513546 C12.84525823 251.86230696 16.0523355 251.85869432 19.259552 251.85097122 C20.7710884 251.84900066 22.28263791 251.85131482 23.79415894 251.85840988 C51.55474261 251.96019088 75.5713166 242.64510699 95.65808105 223.11358643 C115.60741424 202.03890624 121.3947597 176.09287274 121.42370605 147.87921143 C121.42703445 146.71809845 121.43036285 145.55698547 121.43379211 144.36068726 C121.43882166 141.91862378 121.44120168 139.47655352 121.44104004 137.03448486 C121.44321925 133.35500387 121.46139832 129.67582681 121.48034668 125.99639893 C121.83618416 101.69427491 121.83618416 101.69427491 116.5682373 78.13702393 C116.17740967 77.0300415 116.17740967 77.0300415 115.77868652 75.9006958 C111.71604288 64.79404941 105.95544324 55.42718936 98.2557373 46.44952393 C97.79940918 45.8488208 97.34308105 45.24811768 96.8729248 44.62921143 C83.77183779 27.76254251 60.8778507 17.83453148 40.32466221 15.1072731 C33.31562459 14.24339926 26.34063732 14.16155213 19.28308105 14.18389893 C17.90316195 14.18254497 16.52324331 14.18059845 15.14332581 14.17810059 C12.2786496 14.17518452 9.41409976 14.17933219 6.54943848 14.18878174 C2.92021867 14.20018509 -0.7087054 14.19358864 -4.33791447 14.18163681 C-7.17876828 14.17433114 -10.01955459 14.17674535 -12.86041069 14.1818924 C-14.83529228 14.18383107 -16.81017676 14.17787414 -18.78504944 14.17163086 C-43.30830565 14.29713463 -66.32669879 20.71722731 -84.7442627 37.44952393 Z " 
        fill="#010002" 
        transform="translate(129.7442626953125,14.55047607421875)"/>
<path d="M0 0 C1.1164222 0.95052271 2.23193255 1.9021165 3.34706116 2.85415649 C4.2790085 3.64886069 4.2790085 3.64886069 5.22978306 4.45961952 C7.45296352 6.39415291 9.54510139 8.43229192 11.62109375 10.5234375 C12.41064453 11.31621094 13.20019531 12.10898438 14.01367188 12.92578125 C15.2134668 14.13814453 15.2134668 14.13814453 16.4375 15.375 C17.26443359 16.20644531 18.09136719 17.03789063 18.94335938 17.89453125 C20.96455531 19.9274104 22.98336335 21.96259963 25 24 C19.87655629 30.19840119 14.28185028 35.85331268 8.58837891 41.52514648 C7.54295719 42.57028567 6.49775654 43.61564601 5.45275879 44.66120911 C2.63312398 47.48112929 -0.18957008 50.29796869 -3.01284742 53.11424136 C-5.96948186 56.06459894 -8.9232601 59.01781329 -11.87734985 61.97071838 C-17.46378408 67.55405203 -23.05276117 73.13483296 -28.64266932 78.71468836 C-35.0098465 85.07066478 -41.37416394 91.42950143 -47.73824954 97.78857315 C-60.82233299 110.86222104 -73.90998143 123.9322948 -87 137 C-91.77636699 133.01465059 -96.2858377 128.85518055 -100.66967773 124.44384766 C-101.29492844 123.81874298 -101.92017914 123.19363831 -102.56437683 122.54959106 C-104.60649851 120.50677921 -106.64506673 118.46046093 -108.68359375 116.4140625 C-110.10826572 114.98752317 -111.53316032 113.56120616 -112.95826721 112.13510132 C-116.69060687 108.39896155 -120.41993237 104.65982738 -124.14862061 100.92004395 C-127.96118329 97.09721303 -131.77661322 93.27724613 -135.59179688 89.45703125 C-143.06399371 81.97414133 -150.53300678 74.48808224 -158 67 C-156.26239853 63.28286264 -154.14323122 60.91258988 -151.2109375 58.015625 C-150.74765045 57.55516785 -150.2843634 57.09471069 -149.80703735 56.62030029 C-148.33434102 55.15874922 -146.85482597 53.70432832 -145.375 52.25 C-144.37193678 51.25697389 -143.36932743 50.26348911 -142.3671875 49.26953125 C-139.91669165 46.84102059 -137.4600333 44.41885325 -135 42 C-129.28299462 46.75136274 -124.02310577 51.84614587 -118.78515625 57.1171875 C-117.92941513 57.97434357 -117.07367401 58.83149963 -116.19200134 59.71463013 C-113.47979535 62.43239954 -110.7711017 65.15363891 -108.0625 67.875 C-106.21572631 69.72679342 -104.36872347 71.57835834 -102.52148438 73.4296875 C-98.01166799 77.95048435 -93.50472431 82.47412946 -89 87 C-85.84772849 85.60363479 -83.72059618 83.96829025 -81.29205322 81.53256226 C-80.57135147 80.81460983 -79.85064972 80.09665741 -79.10810852 79.35694885 C-78.32767685 78.56932663 -77.54724518 77.78170441 -76.74316406 76.97021484 C-75.91352646 76.14086929 -75.08388885 75.31152374 -74.22911072 74.45704651 C-71.48651536 71.71305719 -68.7510732 68.96205027 -66.015625 66.2109375 C-64.11661233 64.30708432 -62.2160969 62.40473405 -60.31561279 60.50234985 C-55.82452149 56.00504509 -51.33855233 51.50266689 -46.85440326 46.99844134 C-41.74832462 41.86999956 -36.63655841 36.74724302 -31.52430773 31.62495494 C-21.00986654 21.08961478 -10.50258535 10.54716018 0 0 Z " 
        fill="#010002" 
        transform="translate(199,85)"/>
</svg>
